<svg width="80" height="80" viewBox="0 0 80 80" fill="none" xmlns="http://www.w3.org/2000/svg">
<g clip-path="url(#clip0_13_2)">
<path d="M0 14C0 6.26801 6.26801 0 14 0H40V40H0V14Z" fill="#3CAEFF"/>
<path d="M40 0H66C73.732 0 80 6.26801 80 14V40H40V0Z" fill="#1A83CE"/>
<path d="M40 40H80V66C80 73.732 73.732 80 66 80H40V40Z" fill="#149DEF"/>
<path d="M0 40H40V80H14C6.26801 80 0 73.732 0 66V40Z" fill="#0087E8"/>
<path d="M68.287 19.015V22.304H51.313V19.015H68.287ZM59.8 26.605C60.6587 26.605 61.387 26.904 61.985 27.502C62.5983 28.0847 62.905 28.7977 62.905 29.641C62.905 30.515 62.5983 31.2587 61.985 31.872C61.387 32.47 60.6587 32.769 59.8 32.769C58.9413 32.769 58.2053 32.47 57.592 31.872C56.994 31.2587 56.695 30.515 56.695 29.641C56.695 28.7977 56.994 28.0847 57.592 27.502C58.2053 26.904 58.9413 26.605 59.8 26.605ZM59.8 8.573C60.6587 8.573 61.387 8.872 61.985 9.47C62.5983 10.0527 62.905 10.7657 62.905 11.609C62.905 12.483 62.5983 13.2113 61.985 13.794C61.387 14.3767 60.6587 14.668 59.8 14.668C58.9413 14.668 58.2053 14.3767 57.592 13.794C56.994 13.2113 56.695 12.483 56.695 11.609C56.695 10.7657 56.994 10.0527 57.592 9.47C58.2053 8.872 58.9413 8.573 59.8 8.573Z" fill="white"/>
<path d="M50.577 60.281V56.923H69.023V60.281H50.577Z" fill="white"/>
<path d="M21.548 9.907V19.084H30.587V22.327H21.548V31.435H17.937V22.327H9.013V19.084H17.937V9.907H21.548Z" fill="white"/>
<path d="M25.435 50.759L27.85 53.243L22.215 58.878L27.85 64.513L25.435 66.928L19.8 61.293L14.165 66.928L11.75 64.513L17.385 58.878L11.75 53.243L14.165 50.759L19.8 56.463L25.435 50.759Z" fill="white"/>
</g>
<defs>
<clipPath id="clip0_13_2">
<rect width="80" height="80" fill="white"/>
</clipPath>
</defs>
</svg>
